<svg width="217" height="83" viewBox="0 0 217 83" fill="none" xmlns="http://www.w3.org/2000/svg">
<path d="M37.5557 47.6619V49.2718H25.17V30.8361H37.322V32.4459H26.9876V39.0932H35.9978V40.6252H26.9876V47.6619H37.5557Z" fill="#171717"/>
<path d="M40.9929 49.2718V30.8361H42.8105V47.6619H53.4565V49.2718H40.9929Z" fill="#171717"/>
<path d="M53.3908 30.8361L59.9861 47.0128L66.5555 30.8361H68.451L60.817 49.2718H59.1552L51.4953 30.8361H53.3908Z" fill="#171717"/>
<path d="M83.4777 47.6619V49.2718H71.092V30.8361H83.244V32.4459H72.9096V39.0932H81.9197V40.6252H72.9096V47.6619H83.4777Z" fill="#171717"/>
<path d="M88.7325 34.1857V49.2718H86.9149V30.8361H88.4209L100.521 46.2078V30.862H102.339V49.2718H100.651L88.7325 34.1857Z" fill="#171717"/>
<path d="M119.611 30.9659H121.324L123.921 37.5093L126.544 30.9659H128.283L125.064 38.8335L128.595 47.1686L135.268 30.8361H137.242L129.426 49.2718H127.816L123.947 40.1578L120.052 49.2718H118.468L110.678 30.8361H112.626L119.325 47.1686L122.83 38.8335L119.611 30.9659Z" fill="#171717"/>
<path d="M146.577 49.4016C145.279 49.4016 144.102 49.142 143.046 48.6227C141.99 48.1033 141.081 47.4023 140.319 46.5194C139.558 45.6193 138.969 44.6153 138.554 43.5074C138.138 42.3822 137.93 41.231 137.93 40.0539C137.93 38.8249 138.147 37.6564 138.58 36.5485C139.012 35.4234 139.618 34.428 140.397 33.5625C141.193 32.6796 142.12 31.9872 143.175 31.4852C144.231 30.9659 145.374 30.7062 146.603 30.7062C147.901 30.7062 149.078 30.9746 150.134 31.5112C151.19 32.0478 152.09 32.7662 152.835 33.6663C153.596 34.5665 154.185 35.5705 154.6 36.6784C155.016 37.7863 155.224 38.9201 155.224 40.0799C155.224 41.3089 155.007 42.4861 154.574 43.6112C154.142 44.7191 153.536 45.7145 152.757 46.5973C151.978 47.4628 151.06 48.1466 150.005 48.6486C148.949 49.1506 147.806 49.4016 146.577 49.4016ZM139.748 40.0539C139.748 41.0579 139.912 42.0273 140.241 42.9621C140.57 43.8796 141.038 44.7018 141.644 45.4289C142.249 46.1386 142.968 46.7098 143.799 47.1426C144.647 47.5581 145.573 47.7658 146.577 47.7658C147.633 47.7658 148.576 47.5494 149.407 47.1166C150.256 46.6666 150.974 46.078 151.562 45.351C152.168 44.6066 152.627 43.7757 152.939 42.8582C153.25 41.9408 153.406 41.006 153.406 40.0539C153.406 39.0499 153.242 38.0892 152.913 37.1717C152.584 36.2543 152.108 35.432 151.485 34.705C150.879 33.9779 150.16 33.4067 149.329 32.9912C148.498 32.5758 147.581 32.3681 146.577 32.3681C145.538 32.3681 144.595 32.5844 143.747 33.0172C142.916 33.45 142.197 34.0385 141.592 34.7829C141.003 35.5099 140.544 36.3322 140.215 37.2496C139.904 38.1671 139.748 39.1019 139.748 40.0539Z" fill="#171717"/>
<path d="M166.077 49.4016C164.778 49.4016 163.601 49.142 162.545 48.6227C161.489 48.1033 160.581 47.4023 159.819 46.5194C159.057 45.6193 158.469 44.6153 158.053 43.5074C157.638 42.3822 157.43 41.231 157.43 40.0539C157.43 38.8249 157.647 37.6564 158.079 36.5485C158.512 35.4234 159.118 34.428 159.897 33.5625C160.693 32.6796 161.619 31.9872 162.675 31.4852C163.731 30.9659 164.874 30.7062 166.103 30.7062C167.401 30.7062 168.578 30.9746 169.634 31.5112C170.69 32.0478 171.59 32.7662 172.334 33.6663C173.096 34.5665 173.685 35.5705 174.1 36.6784C174.516 37.7863 174.723 38.9201 174.723 40.0799C174.723 41.3089 174.507 42.4861 174.074 43.6112C173.641 44.7191 173.036 45.7145 172.257 46.5973C171.478 47.4628 170.56 48.1466 169.504 48.6486C168.448 49.1506 167.306 49.4016 166.077 49.4016ZM159.248 40.0539C159.248 41.0579 159.412 42.0273 159.741 42.9621C160.07 43.8796 160.537 44.7018 161.143 45.4289C161.749 46.1386 162.467 46.7098 163.298 47.1426C164.147 47.5581 165.073 47.7658 166.077 47.7658C167.133 47.7658 168.076 47.5494 168.907 47.1166C169.755 46.6666 170.474 46.078 171.062 45.351C171.668 44.6066 172.127 43.7757 172.438 42.8582C172.75 41.9408 172.906 41.006 172.906 40.0539C172.906 39.0499 172.741 38.0892 172.412 37.1717C172.083 36.2543 171.607 35.432 170.984 34.705C170.378 33.9779 169.66 33.4067 168.829 32.9912C167.998 32.5758 167.081 32.3681 166.077 32.3681C165.038 32.3681 164.095 32.5844 163.246 33.0172C162.416 33.45 161.697 34.0385 161.091 34.7829C160.503 35.5099 160.044 36.3322 159.715 37.2496C159.404 38.1671 159.248 39.1019 159.248 40.0539Z" fill="#171717"/>
<path d="M178.15 49.2718V30.8361H184.408C186.364 30.8361 187.991 31.2515 189.29 32.0824C190.605 32.896 191.592 34.0039 192.25 35.4061C192.907 36.7909 193.236 38.3315 193.236 40.028C193.236 41.8975 192.873 43.5247 192.146 44.9095C191.436 46.2944 190.415 47.3676 189.082 48.1293C187.766 48.891 186.208 49.2718 184.408 49.2718H178.15ZM191.419 40.028C191.419 38.5566 191.142 37.2496 190.588 36.1071C190.051 34.9646 189.264 34.0731 188.225 33.4326C187.186 32.7748 185.914 32.4459 184.408 32.4459H179.968V47.6619H184.408C185.931 47.6619 187.212 47.3244 188.251 46.6492C189.29 45.9741 190.077 45.0653 190.614 43.9228C191.15 42.763 191.419 41.4647 191.419 40.028Z" fill="#171717"/>
<path d="M79.4547 65.7786V57.3509H80.2856V65.7786H79.4547Z" fill="#171717"/>
<path d="M83.23 58.8821V65.7786H82.3991V57.3509H83.0875L88.619 64.378V57.3627H89.4499V65.7786H88.6783L83.23 58.8821Z" fill="#171717"/>
<path d="M97.5508 58.0868H94.5476V65.7786H93.7167V58.0868H90.7136V57.3509H97.5508V58.0868Z" fill="#171717"/>
<path d="M104.475 65.0427V65.7786H98.8132V57.3509H104.368V58.0868H99.6441V61.1256H103.763V61.8259H99.6441V65.0427H104.475Z" fill="#171717"/>
<path d="M106.047 65.7786V57.3509H109.608C109.972 57.3509 110.304 57.4261 110.605 57.5764C110.905 57.7268 111.166 57.9325 111.388 58.1936C111.618 58.4469 111.792 58.7318 111.91 59.0483C112.037 59.3569 112.1 59.6735 112.1 59.9979C112.1 60.4015 112.021 60.7813 111.863 61.1374C111.712 61.4935 111.495 61.7942 111.21 62.0396C110.933 62.2849 110.605 62.4471 110.225 62.5262L112.29 65.7786H111.352L109.37 62.6687H106.877V65.7786H106.047ZM106.877 61.9327H109.631C109.964 61.9327 110.252 61.8417 110.498 61.6597C110.743 61.4777 110.933 61.2403 111.068 60.9475C111.202 60.6468 111.269 60.3303 111.269 59.9979C111.269 59.6576 111.19 59.345 111.032 59.0602C110.882 58.7674 110.676 58.5339 110.415 58.3598C110.161 58.1778 109.877 58.0868 109.56 58.0868H106.877V61.9327Z" fill="#171717"/>
<path d="M113.801 65.7786V57.3509H114.632V65.7786H113.801Z" fill="#171717"/>
<path d="M120.141 65.838C119.547 65.838 119.009 65.7193 118.526 65.4819C118.044 65.2445 117.628 64.924 117.28 64.5204C116.932 64.1089 116.663 63.6499 116.473 63.1435C116.283 62.6291 116.188 62.1029 116.188 61.5648C116.188 61.0029 116.287 60.4687 116.485 59.9623C116.683 59.4479 116.959 58.9929 117.316 58.5972C117.68 58.1936 118.103 57.8771 118.586 57.6476C119.068 57.4102 119.591 57.2915 120.153 57.2915C120.746 57.2915 121.284 57.4142 121.767 57.6595C122.25 57.9048 122.661 58.2332 123.001 58.6447C123.35 59.0562 123.619 59.5152 123.809 60.0216C123.998 60.5281 124.093 61.0464 124.093 61.5766C124.093 62.1385 123.994 62.6766 123.797 63.191C123.599 63.6974 123.322 64.1524 122.966 64.556C122.61 64.9517 122.19 65.2643 121.708 65.4937C121.225 65.7232 120.703 65.838 120.141 65.838ZM117.019 61.5648C117.019 62.0237 117.094 62.4669 117.244 62.8942C117.395 63.3136 117.608 63.6895 117.885 64.0219C118.162 64.3463 118.491 64.6075 118.871 64.8053C119.258 64.9952 119.682 65.0902 120.141 65.0902C120.623 65.0902 121.055 64.9912 121.434 64.7934C121.822 64.5877 122.151 64.3186 122.42 63.9863C122.697 63.646 122.906 63.2661 123.049 62.8467C123.191 62.4273 123.262 62 123.262 61.5648C123.262 61.1058 123.187 60.6666 123.037 60.2472C122.887 59.8278 122.669 59.4519 122.384 59.1195C122.107 58.7872 121.779 58.526 121.399 58.3361C121.019 58.1462 120.6 58.0512 120.141 58.0512C119.666 58.0512 119.235 58.1501 118.847 58.348C118.467 58.5458 118.139 58.8148 117.862 59.1551C117.593 59.4875 117.383 59.8634 117.232 60.2828C117.09 60.7022 117.019 61.1295 117.019 61.5648Z" fill="#171717"/>
<path d="M125.66 65.7786V57.3509H129.221C129.585 57.3509 129.917 57.4261 130.218 57.5764C130.519 57.7268 130.78 57.9325 131.001 58.1936C131.231 58.4469 131.405 58.7318 131.524 59.0483C131.65 59.3569 131.714 59.6735 131.714 59.9979C131.714 60.4015 131.635 60.7813 131.476 61.1374C131.326 61.4935 131.108 61.7942 130.823 62.0396C130.546 62.2849 130.218 62.4471 129.838 62.5262L131.904 65.7786H130.966L128.984 62.6687H126.491V65.7786H125.66ZM126.491 61.9327H129.245C129.577 61.9327 129.866 61.8417 130.111 61.6597C130.357 61.4777 130.546 61.2403 130.681 60.9475C130.816 60.6468 130.883 60.3303 130.883 59.9979C130.883 59.6576 130.804 59.345 130.645 59.0602C130.495 58.7674 130.289 58.5339 130.028 58.3598C129.775 58.1778 129.49 58.0868 129.174 58.0868H126.491V61.9327Z" fill="#171717"/>
<path d="M138.341 58.9296C138.222 58.7951 138.084 58.6764 137.926 58.5735C137.767 58.4627 137.589 58.3677 137.391 58.2886C137.194 58.2095 136.98 58.1462 136.75 58.0987C136.529 58.0512 136.291 58.0275 136.038 58.0275C135.302 58.0275 134.76 58.1699 134.412 58.4548C134.072 58.7318 133.902 59.1116 133.902 59.5943C133.902 59.9267 133.981 60.1878 134.139 60.3777C134.305 60.5677 134.562 60.722 134.911 60.8407C135.259 60.9594 135.702 61.082 136.24 61.2087C136.841 61.3353 137.36 61.4856 137.795 61.6597C138.23 61.8338 138.567 62.0712 138.804 62.3719C139.041 62.6647 139.16 63.0643 139.16 63.5708C139.16 63.9586 139.085 64.2949 138.935 64.5798C138.784 64.8646 138.574 65.102 138.305 65.292C138.036 65.4819 137.716 65.6243 137.344 65.7193C136.972 65.8063 136.564 65.8499 136.121 65.8499C135.686 65.8499 135.267 65.8063 134.863 65.7193C134.467 65.6243 134.092 65.4898 133.735 65.3157C133.379 65.1337 133.047 64.9042 132.738 64.6272L133.154 63.9506C133.304 64.1089 133.482 64.2593 133.688 64.4017C133.902 64.5362 134.135 64.6589 134.388 64.7697C134.649 64.8805 134.926 64.9675 135.219 65.0308C135.52 65.0862 135.829 65.1139 136.145 65.1139C136.818 65.1139 137.34 64.9913 137.712 64.7459C138.092 64.5006 138.282 64.1366 138.282 63.6539C138.282 63.3057 138.187 63.0287 137.997 62.823C137.807 62.6093 137.522 62.4352 137.142 62.3007C136.762 62.1662 136.295 62.0356 135.741 61.909C135.156 61.7745 134.661 61.6241 134.258 61.4579C133.854 61.2917 133.549 61.0741 133.344 60.8051C133.146 60.5281 133.047 60.1641 133.047 59.713C133.047 59.1907 133.174 58.7515 133.427 58.3954C133.688 58.0314 134.044 57.7584 134.495 57.5764C134.946 57.3865 135.465 57.2915 136.05 57.2915C136.422 57.2915 136.766 57.3311 137.083 57.4102C137.407 57.4814 137.704 57.5883 137.973 57.7307C138.25 57.8732 138.507 58.0512 138.745 58.2649L138.341 58.9296Z" fill="#171717"/>
<path d="M13.4838 18.4838H203.776V60.0291H144.982V61.5128H205.26V17H12V61.5128H72.6487V60.0291H13.4838V18.4838Z" fill="#171717"/>
</svg>
